<svg width="18" height="18" viewBox="0 0 18 18" fill="none" xmlns="http://www.w3.org/2000/svg">
<path d="M14.0706 13.8713C13.5076 14.7125 12.9107 15.5333 12.0017 15.5468C11.0926 15.5672 10.801 15.0109 9.76985 15.0109C8.73196 15.0109 8.41313 15.5333 7.55161 15.5672C6.66296 15.6011 5.99139 14.6718 5.42156 13.8509C4.26157 12.1754 3.37292 9.08886 4.56683 7.01308C5.157 5.98197 6.21524 5.33075 7.36167 5.31039C8.22997 5.29683 9.05757 5.90057 9.59347 5.90057C10.1226 5.90057 11.1266 5.17472 12.1712 5.28326C12.6122 5.30361 13.8468 5.45963 14.6405 6.62641C14.5794 6.66711 13.1684 7.49471 13.182 9.21096C13.2023 11.2596 14.9796 11.9448 15 11.9515C14.9796 11.999 14.7151 12.9284 14.0639 13.8713M10.1972 3.01754C10.6924 2.4545 11.5132 2.02713 12.1916 2C12.2798 2.79368 11.9609 3.59415 11.4861 4.16397C11.018 4.74057 10.2447 5.18829 9.48494 5.12724C9.38318 4.34712 9.76307 3.53309 10.1972 3.01754Z" fill="#7A7A86"/>
</svg>
