<svg width="18" height="18" viewBox="0 0 18 18" fill="none" xmlns="http://www.w3.org/2000/svg">
<path d="M9.58305 8.99996C9.58305 8.6778 9.32188 8.41663 8.99972 8.41663C8.67755 8.41663 8.41638 8.6778 8.41638 8.99996C8.41638 9.32213 8.67755 9.5833 8.99972 9.5833C9.32188 9.5833 9.58305 9.32213 9.58305 8.99996Z" stroke="#7A7A86" stroke-width="1.16667" stroke-linecap="round" stroke-linejoin="round"/>
<path d="M9.58305 4.91667C9.58305 4.5945 9.32188 4.33333 8.99972 4.33333C8.67755 4.33333 8.41638 4.5945 8.41638 4.91667C8.41638 5.23883 8.67755 5.5 8.99972 5.5C9.32188 5.5 9.58305 5.23883 9.58305 4.91667Z" stroke="#7A7A86" stroke-width="1.16667" stroke-linecap="round" stroke-linejoin="round"/>
<path d="M9.58305 13.0834C9.58305 12.7612 9.32188 12.5 8.99972 12.5C8.67755 12.5 8.41638 12.7612 8.41638 13.0834C8.41638 13.4055 8.67755 13.6667 8.99972 13.6667C9.32188 13.6667 9.58305 13.4055 9.58305 13.0834Z" stroke="#7A7A86" stroke-width="1.16667" stroke-linecap="round" stroke-linejoin="round"/>
</svg>
