<svg width="18" height="18" viewBox="0 0 18 18" fill="none" xmlns="http://www.w3.org/2000/svg">
<g clip-path="url(#clip0_18_342)">
<path d="M14.8333 11.87V13.62C14.834 13.7824 14.8007 13.9432 14.7356 14.0921C14.6705 14.2409 14.5751 14.3745 14.4554 14.4844C14.3357 14.5942 14.1943 14.6778 14.0404 14.7299C13.8865 14.7819 13.7235 14.8012 13.5617 14.7866C11.7667 14.5916 10.0424 13.9782 8.5275 12.9958C7.11807 12.1002 5.92311 10.9052 5.0275 9.49579C4.04166 7.97399 3.42814 6.24137 3.23667 4.43829C3.22209 4.27698 3.24126 4.1144 3.29296 3.9609C3.34466 3.80741 3.42775 3.66636 3.53695 3.54673C3.64615 3.42711 3.77905 3.33154 3.92721 3.26609C4.07537 3.20065 4.23553 3.16677 4.3975 3.16662H6.1475C6.4306 3.16384 6.70505 3.26408 6.9197 3.44868C7.13434 3.63328 7.27455 3.88963 7.31417 4.16995C7.38803 4.72999 7.52501 5.27988 7.7225 5.80912C7.80099 6.01791 7.81797 6.24482 7.77145 6.46297C7.72492 6.68111 7.61684 6.88135 7.46 7.03995L6.71917 7.78079C7.54958 9.24119 8.75877 10.4504 10.2192 11.2808L10.96 10.54C11.1186 10.3831 11.3188 10.275 11.537 10.2285C11.7551 10.182 11.982 10.199 12.1908 10.2775C12.7201 10.4749 13.27 10.6119 13.83 10.6858C14.1134 10.7258 14.3722 10.8685 14.5571 11.0868C14.7421 11.3052 14.8404 11.5839 14.8333 11.87Z" stroke="#7A7A86" stroke-width="1.16667" stroke-linecap="round" stroke-linejoin="round"/>
</g>
<defs>
<clipPath id="clip0_18_342">
<rect width="14" height="14" fill="white" transform="translate(2 2)"/>
</clipPath>
</defs>
</svg>
